<svg id="Layer_1" data-name="Layer 1" xmlns="http://www.w3.org/2000/svg" width="1.56in" height="1.75in" viewBox="0 0 112 126">
  <defs>
    <style>
      .cls-1 {
        fill: #fff;
      }
    </style>
  </defs>
  <title>usb [Convertido]</title>
  <g>
    <path class="cls-1" d="M56,0h52.06V32L112,32V62.28c-.84,12.08-9.55,22.67-20.92,26.51,0,3.42,0,6.84,0,10.27h-5V126H84V99.06H80.06V126H78V99.07H73c0-3.42,0-6.84,0-10.26C61.59,85,52.62,74.28,52.1,62.1c-.27-10,0-20.06-.1-30.09l4,0Zm2.06,2.06V32H100V2.06Zm44,0V32H106V2.06Zm-48,32c0,9-.07,18,0,27C54.3,74.09,65,86.13,78,87.56c13-1.43,23.58-13.44,23.91-26.42.21-9,0-18,.08-27.08Zm50,0c-.14,9.67.29,19.35-.22,29C103,73.94,95.4,83.26,85.76,87.9c3.8-1,7.66-2,11-4.18a28.06,28.06,0,0,0,13.17-22.66c.2-9,0-18,.08-27ZM75,89.37c0,2.54,0,5.09,0,7.63H85V90A66.43,66.43,0,0,1,75,89.37ZM87,97h2c0-2.77,0-5.54-.17-8.31C85.84,90.35,87.44,94.24,87,97Z"/>
    <path class="cls-1" d="M4,6H38.06q0,11,0,22L42,28q0,23,0,46a11.41,11.41,0,0,1-3.73,9.28c-2.34,2.26-5.72,2.52-8.77,3A45.65,45.65,0,0,1,27.69,91,33.14,33.14,0,0,1,25.17,95c-.24,10.33,0,20.66-.11,31H23V94.06H19.06V126H17c0-8.67-.05-17.35.06-26-.08-2.4.45-5.26-1.87-6.84-.13-.74-.27-1.47-.4-2.19a9.26,9.26,0,0,1-2.21-4.64C6.72,86.37,1,82.71,0,76.65V28H4ZM6.06,8.06V28H32V8.06Zm28,0c-.05,6.66,0,13.31,0,20H36c0-6.66,0-13.32,0-20Zm-32,22c0,15-.06,30,0,45a8.89,8.89,0,0,0,8.79,8.86c5.06.12,10.14.24,15.19-.09,4.79-.37,8.28-5.08,7.92-9.75,0-14.67,0-29.35,0-44Zm34,0c-.05,15,.1,30-.05,45,.15,3.62-2.18,6.55-4.18,9.32,2.25-1.15,5-1.94,6.42-4.16C40,77.89,40,74.81,40,72,40,58,40,44,40,30.06Zm-21,56c0,.47,0,1.41,0,1.87l5,.06c0,.5,0,1.5,0,2L17,90.14,17,92l8,0V90.08l-3,0V88h5V86.06C23,86.06,19,86.05,15,86.09Z"/>
    <path class="cls-1" d="M61.6,12.6c3.8-1.27,8.32-.55,12.36-.4,1.73,1.34.82,3.91,1.11,5.8-.31,1.88.64,4.49-1.12,5.8a62.15,62.15,0,0,1-11.89,0c-1.6-1-.87-3.19-1.13-4.75C61.15,17,60.45,14.42,61.6,12.6ZM63.09,14q0,4,0,8h2q0-4,0-8Zm4,0V22H73V14.06Z"/>
    <path class="cls-1" d="M83.61,12.59c3.52-1.26,7.73-.47,11.5-.5,2.53,0,1.74,3.26,2,4.92-.31,2.2.72,5.1-1.08,6.79a61.94,61.94,0,0,1-11.87,0L83.2,23C83.05,19.61,82.32,15.71,83.61,12.59ZM85.08,14c0,2.66,0,5.31,0,8h2q0-4,0-8Zm4,0V22H95V14.06Z"/>
    <path class="cls-1" d="M8.58,14.6c1.76-1.19,4.31-.57,6.35-.42,2,1.55.94,4.61.9,6.78C14,22.68,10.1,22.59,8.18,21,8,19,7.42,16.41,8.58,14.6Zm1.48,1.46V20H14V16.06Z"/>
    <path class="cls-1" d="M22.56,14.61c2-1,5.51-1.3,7.26.4.08,2.19,1,5.17-.85,6.82-2.17,0-5.25,1.07-6.8-.91C22,18.89,21.45,16.41,22.56,14.61Zm1.5,1.45V20H28V16.06Z"/>
    <path class="cls-1" d="M4.16,33.17c1.63-.53,2.19,0,1.68,1.66C4.21,35.36,3.65,34.8,4.16,33.17Z"/>
    <path class="cls-1" d="M4,37H6.06c0,12.36,0,24.72,0,37.08-.19,2.28.88,4.79,3.19,5.54,3.19.69,6.5.32,9.74.38v2c-3,0-6.06.17-9.08-.12a6.73,6.73,0,0,1-5.87-6.8C3.92,62.38,4,49.69,4,37Z"/>
    <path class="cls-1" d="M60.33,40.46c1.45-.67,3.12-.39,4.67-.5,9.7.14,19.4-.1,29.09.11a2.7,2.7,0,0,1,2.84,2.79q.21,10.14,0,20.29c.15,2.09-2.08,3.09-3.87,2.85-9.68,0-19.36,0-29,0-1.74,0-4.26.13-4.84-2-.49-6,0-12-.23-18C59.15,44.17,58.48,41.66,60.33,40.46Zm.8,1.67Q61,53,61.13,63.9c11.25.17,22.5.14,33.75,0,.21-7.26.16-14.52,0-21.78C83.65,42,72.39,42,61.13,42.13Z"/>
    <path class="cls-1" d="M63,44H93V62H69V60H91V46.06H65.06c0,4.62,0,9.23,0,13.85l2,.16c0,.48,0,1.45,0,1.93H63Z"/>
    <ellipse class="cls-1" cx="72" cy="49" rx="7.64" ry="1.32"/>
    <ellipse class="cls-1" cx="84" cy="49" rx="7.64" ry="1.32"/>
    <ellipse class="cls-1" cx="78" cy="53" rx="16.8" ry="1.32"/>
    <ellipse class="cls-1" cx="78" cy="57" rx="16.8" ry="1.32"/>
    <path class="cls-1" d="M76.27,70.35A4,4,0,0,1,82,74c.2,3.17-3.9,5.24-6.38,3.29A4.07,4.07,0,0,1,76.27,70.35Zm.88,1.81c-2.21,1.12-.68,4.66,1.68,3.68A2,2,0,0,0,77.15,72.16Z"/>
  </g>
</svg>
